<svg width="28" height="28" viewBox="0 0 28 28" fill="none" xmlns="http://www.w3.org/2000/svg">
<path d="M23.7067 22.2937L16.8818 15.4687C18.2038 13.8358 18.9998 11.7608 18.9998 9.50083C18.9998 4.26288 14.7378 0.000915527 9.49986 0.000915527C4.26192 0.000915527 0 4.26284 0 9.50078C0 14.7387 4.26197 19.0007 9.49991 19.0007C11.7599 19.0007 13.8349 18.2047 15.4678 16.8827L22.2928 23.7076C22.4878 23.9026 22.7437 24.0007 22.9998 24.0007C23.2558 24.0007 23.5118 23.9026 23.7068 23.7076C24.0978 23.3167 24.0978 22.6847 23.7067 22.2937ZM9.49991 17.0007C5.36394 17.0007 1.99999 13.6368 1.99999 9.50078C1.99999 5.36481 5.36394 2.00086 9.49991 2.00086C13.6359 2.00086 16.9998 5.36481 16.9998 9.50078C16.9998 13.6368 13.6358 17.0007 9.49991 17.0007Z" fill="#1E0D03"/>
</svg>
