<svg width="470" height="48" viewBox="0 0 470 48" fill="none" xmlns="http://www.w3.org/2000/svg">
<rect width="470" height="48" rx="12" fill="#EDEDED"/>
<path opacity="0.3" d="M20.256 30.096C19.4347 30.096 18.6453 29.9627 17.888 29.696C17.1413 29.4293 16.576 29.088 16.192 28.672L16.768 27.744C17.1413 28.1493 17.6587 28.4747 18.32 28.72C18.9813 28.9653 19.664 29.088 20.368 29.088C21.36 29.088 22.1547 28.896 22.752 28.512C23.36 28.1173 23.664 27.5733 23.664 26.88C23.664 26.5067 23.552 26.2027 23.328 25.968C23.104 25.7333 22.8213 25.5467 22.48 25.408C22.1387 25.2587 21.6747 25.0987 21.088 24.928C20.3947 24.7253 19.8293 24.5333 19.392 24.352C18.9653 24.16 18.5973 23.8827 18.288 23.52C17.9893 23.1467 17.84 22.6667 17.84 22.08C17.84 21.3867 18.0267 20.7893 18.4 20.288C18.784 19.776 19.312 19.3867 19.984 19.12C20.6667 18.8427 21.4453 18.704 22.32 18.704C22.992 18.704 23.632 18.7893 24.24 18.96C24.848 19.12 25.3653 19.3547 25.792 19.664L25.296 20.624C24.8907 20.3253 24.4267 20.1013 23.904 19.952C23.3813 19.792 22.832 19.712 22.256 19.712C21.2747 19.712 20.4853 19.9147 19.888 20.32C19.2907 20.7253 18.992 21.2747 18.992 21.968C18.992 22.352 19.1093 22.6667 19.344 22.912C19.5787 23.1573 19.8667 23.3547 20.208 23.504C20.56 23.6427 21.0293 23.7973 21.616 23.968C22.3093 24.1707 22.8693 24.368 23.296 24.56C23.7227 24.7413 24.0853 25.008 24.384 25.36C24.6827 25.7013 24.832 26.1547 24.832 26.72C24.832 27.424 24.6347 28.032 24.24 28.544C23.856 29.0453 23.3173 29.4293 22.624 29.696C21.9413 29.9627 21.152 30.096 20.256 30.096ZM27.6518 26.112C27.6411 26.1867 27.6358 26.2987 27.6358 26.448C27.6358 27.3013 27.8758 27.952 28.3558 28.4C28.8464 28.848 29.5718 29.072 30.5318 29.072C31.0864 29.072 31.6038 28.9813 32.0838 28.8C32.5744 28.608 32.9744 28.3467 33.2838 28.016L33.7958 28.832C33.4011 29.2267 32.9051 29.536 32.3078 29.76C31.7211 29.9733 31.0971 30.08 30.4358 30.08C29.2198 30.08 28.2598 29.76 27.5558 29.12C26.8624 28.48 26.5158 27.6053 26.5158 26.496C26.5158 25.5573 26.7131 24.7093 27.1078 23.952C27.5131 23.1947 28.0678 22.6027 28.7718 22.176C29.4864 21.7387 30.2864 21.52 31.1718 21.52C32.2918 21.52 33.1824 21.84 33.8438 22.48C34.5051 23.1093 34.8358 23.9787 34.8358 25.088C34.8358 25.3973 34.7984 25.7387 34.7238 26.112H27.6518ZM31.1398 22.48C30.2971 22.48 29.5771 22.7307 28.9798 23.232C28.3824 23.7333 27.9771 24.4107 27.7638 25.264H33.7638C33.7744 25.1893 33.7798 25.088 33.7798 24.96C33.7798 24.1707 33.5398 23.5627 33.0598 23.136C32.5798 22.6987 31.9398 22.48 31.1398 22.48ZM45.612 21.584L43.932 30H42.844L43.116 28.672C42.7107 29.12 42.2307 29.4667 41.676 29.712C41.1213 29.9573 40.508 30.08 39.836 30.08C39.1213 30.08 38.4867 29.936 37.932 29.648C37.3773 29.36 36.9453 28.9493 36.636 28.416C36.3267 27.872 36.172 27.2373 36.172 26.512C36.172 25.5627 36.3747 24.7093 36.78 23.952C37.196 23.1947 37.7667 22.6027 38.492 22.176C39.2173 21.7387 40.028 21.52 40.924 21.52C41.724 21.52 42.396 21.68 42.94 22C43.484 22.3093 43.8787 22.7573 44.124 23.344L44.476 21.584H45.612ZM40.076 29.072C40.7693 29.072 41.3933 28.9067 41.948 28.576C42.5027 28.2347 42.9347 27.7653 43.244 27.168C43.564 26.56 43.724 25.8827 43.724 25.136C43.724 24.3147 43.4787 23.6747 42.988 23.216C42.508 22.7467 41.8307 22.512 40.956 22.512C40.2627 22.512 39.6387 22.6827 39.084 23.024C38.5293 23.3653 38.092 23.84 37.772 24.448C37.4627 25.0453 37.308 25.7173 37.308 26.464C37.308 27.2853 37.548 27.9253 38.028 28.384C38.5187 28.8427 39.2013 29.072 40.076 29.072ZM49.5598 23.12C49.9331 22.576 50.4024 22.176 50.9678 21.92C51.5331 21.6533 52.2158 21.52 53.0158 21.52L52.8078 22.624L52.4878 22.608C51.5811 22.608 50.8344 22.8693 50.2478 23.392C49.6718 23.9147 49.2824 24.6933 49.0798 25.728L48.2318 30H47.0958L48.7598 21.584H49.8478L49.5598 23.12ZM57.1225 30.08C56.3332 30.08 55.6452 29.936 55.0585 29.648C54.4718 29.3493 54.0185 28.9333 53.6985 28.4C53.3892 27.856 53.2345 27.2267 53.2345 26.512C53.2345 25.5627 53.4425 24.7093 53.8585 23.952C54.2745 23.1947 54.8558 22.6027 55.6025 22.176C56.3492 21.7387 57.1918 21.52 58.1305 21.52C58.9092 21.52 59.5758 21.664 60.1305 21.952C60.6958 22.2293 61.1332 22.6453 61.4425 23.2L60.4825 23.76C60.0025 22.928 59.1865 22.512 58.0345 22.512C57.3412 22.512 56.7118 22.6827 56.1465 23.024C55.5918 23.3653 55.1545 23.8347 54.8345 24.432C54.5252 25.0293 54.3705 25.7067 54.3705 26.464C54.3705 27.2853 54.6105 27.9253 55.0905 28.384C55.5812 28.8427 56.2745 29.072 57.1705 29.072C57.7145 29.072 58.2158 28.9707 58.6745 28.768C59.1438 28.5547 59.5278 28.2507 59.8265 27.856L60.6425 28.48C60.2692 28.9813 59.7678 29.376 59.1385 29.664C58.5198 29.9413 57.8478 30.08 57.1225 30.08ZM67.9811 21.52C68.9305 21.52 69.6665 21.7653 70.1891 22.256C70.7225 22.736 70.9891 23.4027 70.9891 24.256C70.9891 24.5547 70.9571 24.8747 70.8931 25.216L69.9331 30H68.7971L69.7571 25.2C69.8105 24.9013 69.8371 24.6453 69.8371 24.432C69.8371 23.824 69.6505 23.36 69.2771 23.04C68.9145 22.7093 68.3758 22.544 67.6611 22.544C66.7545 22.544 66.0078 22.7947 65.4211 23.296C64.8345 23.7867 64.4398 24.5173 64.2371 25.488L63.3411 30H62.2051L64.5731 18.128H65.7091L64.7651 22.848C65.5438 21.9627 66.6158 21.52 67.9811 21.52Z" fill="#1E0D03"/>
<path d="M449.707 32.2937L442.882 25.4688C444.204 23.8358 445 21.7608 445 19.5008C445 14.2629 440.738 10.0009 435.5 10.0009C430.262 10.0009 426 14.2628 426 19.5008C426 24.7387 430.262 29.0007 435.5 29.0007C437.76 29.0007 439.835 28.2047 441.468 26.8827L448.293 33.7076C448.488 33.9026 448.744 34.0007 449 34.0007C449.256 34.0007 449.512 33.9026 449.707 33.7076C450.098 33.3167 450.098 32.6847 449.707 32.2937ZM435.5 27.0007C431.364 27.0007 428 23.6368 428 19.5008C428 15.3648 431.364 12.0009 435.5 12.0009C439.636 12.0009 443 15.3648 443 19.5008C443 23.6368 439.636 27.0007 435.5 27.0007Z" fill="#1E0D03"/>
</svg>
