<svg width="252" height="56" viewBox="0 0 252 56" fill="none" xmlns="http://www.w3.org/2000/svg">
<rect width="252" height="56" rx="8" fill="#FFB800"/>
<path d="M33 25C32.7348 25 32.4804 25.1054 32.2929 25.2929C32.1054 25.4804 32 25.7348 32 26V28C32 28.2652 32.1054 28.5196 32.2929 28.7071C32.4804 28.8946 32.7348 29 33 29C33.2652 29 33.5196 28.8946 33.7071 28.7071C33.8946 28.5196 34 28.2652 34 28V26C34 25.7348 33.8946 25.4804 33.7071 25.2929C33.5196 25.1054 33.2652 25 33 25ZM45 26C45.2652 26 45.5196 25.8946 45.7071 25.7071C45.8946 25.5196 46 25.2652 46 25V21C46 20.7348 45.8946 20.4804 45.7071 20.2929C45.5196 20.1054 45.2652 20 45 20H27C26.7348 20 26.4804 20.1054 26.2929 20.2929C26.1054 20.4804 26 20.7348 26 21V25C26 25.2652 26.1054 25.5196 26.2929 25.7071C26.4804 25.8946 26.7348 26 27 26C27.2652 26 27.5196 26.1054 27.7071 26.2929C27.8946 26.4804 28 26.7348 28 27C28 27.2652 27.8946 27.5196 27.7071 27.7071C27.5196 27.8946 27.2652 28 27 28C26.7348 28 26.4804 28.1054 26.2929 28.2929C26.1054 28.4804 26 28.7348 26 29V33C26 33.2652 26.1054 33.5196 26.2929 33.7071C26.4804 33.8946 26.7348 34 27 34H45C45.2652 34 45.5196 33.8946 45.7071 33.7071C45.8946 33.5196 46 33.2652 46 33V29C46 28.7348 45.8946 28.4804 45.7071 28.2929C45.5196 28.1054 45.2652 28 45 28C44.7348 28 44.4804 27.8946 44.2929 27.7071C44.1054 27.5196 44 27.2652 44 27C44 26.7348 44.1054 26.4804 44.2929 26.2929C44.4804 26.1054 44.7348 26 45 26ZM44 24.18C43.4208 24.3902 42.9205 24.7736 42.5668 25.2782C42.2132 25.7827 42.0235 26.3839 42.0235 27C42.0235 27.6161 42.2132 28.2173 42.5668 28.7218C42.9205 29.2264 43.4208 29.6098 44 29.82V32H34C34 31.7348 33.8946 31.4804 33.7071 31.2929C33.5196 31.1054 33.2652 31 33 31C32.7348 31 32.4804 31.1054 32.2929 31.2929C32.1054 31.4804 32 31.7348 32 32H28V29.82C28.5792 29.6098 29.0795 29.2264 29.4332 28.7218C29.7868 28.2173 29.9765 27.6161 29.9765 27C29.9765 26.3839 29.7868 25.7827 29.4332 25.2782C29.0795 24.7736 28.5792 24.3902 28 24.18V22H32C32 22.2652 32.1054 22.5196 32.2929 22.7071C32.4804 22.8946 32.7348 23 33 23C33.2652 23 33.5196 22.8946 33.7071 22.7071C33.8946 22.5196 34 22.2652 34 22H44V24.18Z" fill="white"/>
<path d="M67.596 34.216C66.612 34.216 65.694 34.054 64.842 33.73C64.002 33.406 63.27 32.95 62.646 32.362C62.034 31.774 61.554 31.084 61.206 30.292C60.87 29.5 60.702 28.636 60.702 27.7C60.702 26.764 60.87 25.9 61.206 25.108C61.554 24.316 62.04 23.626 62.664 23.038C63.288 22.45 64.02 21.994 64.86 21.67C65.7 21.346 66.612 21.184 67.596 21.184C68.592 21.184 69.504 21.346 70.332 21.67C71.172 21.994 71.898 22.45 72.51 23.038C73.134 23.614 73.62 24.298 73.968 25.09C74.316 25.882 74.49 26.752 74.49 27.7C74.49 28.636 74.316 29.506 73.968 30.31C73.62 31.102 73.134 31.792 72.51 32.38C71.898 32.956 71.172 33.406 70.332 33.73C69.504 34.054 68.592 34.216 67.596 34.216ZM71.718 36.898C71.226 36.898 70.758 36.844 70.314 36.736C69.882 36.628 69.45 36.454 69.018 36.214C68.598 35.974 68.154 35.65 67.686 35.242C67.23 34.834 66.732 34.33 66.192 33.73L69.252 32.956C69.576 33.4 69.876 33.754 70.152 34.018C70.428 34.282 70.692 34.468 70.944 34.576C71.208 34.684 71.484 34.738 71.772 34.738C72.54 34.738 73.224 34.426 73.824 33.802L75.12 35.35C74.268 36.382 73.134 36.898 71.718 36.898ZM67.596 31.732C68.16 31.732 68.676 31.636 69.144 31.444C69.624 31.252 70.044 30.976 70.404 30.616C70.764 30.256 71.04 29.83 71.232 29.338C71.436 28.834 71.538 28.288 71.538 27.7C71.538 27.1 71.436 26.554 71.232 26.062C71.04 25.57 70.764 25.144 70.404 24.784C70.044 24.424 69.624 24.148 69.144 23.956C68.676 23.764 68.16 23.668 67.596 23.668C67.032 23.668 66.51 23.764 66.03 23.956C65.55 24.148 65.13 24.424 64.77 24.784C64.422 25.144 64.146 25.57 63.942 26.062C63.75 26.554 63.654 27.1 63.654 27.7C63.654 28.288 63.75 28.834 63.942 29.338C64.146 29.83 64.422 30.256 64.77 30.616C65.13 30.976 65.55 31.252 66.03 31.444C66.51 31.636 67.032 31.732 67.596 31.732ZM80.5695 34.144C79.7655 34.144 79.0455 33.988 78.4095 33.676C77.7855 33.364 77.2995 32.89 76.9515 32.254C76.6035 31.606 76.4295 30.784 76.4295 29.788V24.316H79.2375V29.374C79.2375 30.178 79.4055 30.772 79.7415 31.156C80.0895 31.528 80.5755 31.714 81.1995 31.714C81.6315 31.714 82.0155 31.624 82.3515 31.444C82.6875 31.252 82.9515 30.964 83.1435 30.58C83.3355 30.184 83.4315 29.692 83.4315 29.104V24.316H86.2395V34H83.5755V31.336L84.0615 32.11C83.7375 32.782 83.2575 33.292 82.6215 33.64C81.9975 33.976 81.3135 34.144 80.5695 34.144ZM94.7809 34V32.11L94.6009 31.696V28.312C94.6009 27.712 94.4149 27.244 94.0429 26.908C93.6829 26.572 93.1249 26.404 92.3689 26.404C91.8529 26.404 91.3429 26.488 90.8389 26.656C90.3469 26.812 89.9269 27.028 89.5789 27.304L88.5709 25.342C89.0989 24.97 89.7349 24.682 90.4789 24.478C91.2229 24.274 91.9789 24.172 92.7469 24.172C94.2229 24.172 95.3689 24.52 96.1849 25.216C97.0009 25.912 97.4089 26.998 97.4089 28.474V34H94.7809ZM91.8289 34.144C91.0729 34.144 90.4249 34.018 89.8849 33.766C89.3449 33.502 88.9309 33.148 88.6429 32.704C88.3549 32.26 88.2109 31.762 88.2109 31.21C88.2109 30.634 88.3489 30.13 88.6249 29.698C88.9129 29.266 89.3629 28.93 89.9749 28.69C90.5869 28.438 91.3849 28.312 92.3689 28.312H94.9429V29.95H92.6749C92.0149 29.95 91.5589 30.058 91.3069 30.274C91.0669 30.49 90.9469 30.76 90.9469 31.084C90.9469 31.444 91.0849 31.732 91.3609 31.948C91.6489 32.152 92.0389 32.254 92.5309 32.254C92.9989 32.254 93.4189 32.146 93.7909 31.93C94.1629 31.702 94.4329 31.372 94.6009 30.94L95.0329 32.236C94.8289 32.86 94.4569 33.334 93.9169 33.658C93.3769 33.982 92.6809 34.144 91.8289 34.144ZM93.5749 23.254L92.6929 22.318C93.0409 22.15 93.2809 21.976 93.4129 21.796C93.5449 21.616 93.6109 21.424 93.6109 21.22C93.6109 20.992 93.5329 20.812 93.3769 20.68C93.2209 20.536 93.0169 20.464 92.7649 20.464C92.4049 20.464 92.0509 20.578 91.7029 20.806L91.1089 19.672C91.3849 19.468 91.6909 19.318 92.0269 19.222C92.3749 19.114 92.7229 19.06 93.0709 19.06C93.7069 19.06 94.2229 19.24 94.6189 19.6C95.0269 19.948 95.2309 20.41 95.2309 20.986C95.2309 21.502 95.0929 21.946 94.8169 22.318C94.5409 22.69 94.1269 23.002 93.5749 23.254ZM105.836 24.172C106.604 24.172 107.288 24.328 107.888 24.64C108.5 24.94 108.98 25.408 109.328 26.044C109.676 26.668 109.85 27.472 109.85 28.456V34H107.042V28.888C107.042 28.108 106.868 27.532 106.52 27.16C106.184 26.788 105.704 26.602 105.08 26.602C104.636 26.602 104.234 26.698 103.874 26.89C103.526 27.07 103.25 27.352 103.046 27.736C102.854 28.12 102.758 28.612 102.758 29.212V34H99.9503V24.316H102.632V26.998L102.128 26.188C102.476 25.54 102.974 25.042 103.622 24.694C104.27 24.346 105.008 24.172 105.836 24.172ZM117.493 34V20.644H120.301V34H117.493ZM124.131 37.636C123.627 37.636 123.129 37.558 122.637 37.402C122.145 37.246 121.743 37.03 121.431 36.754L122.457 34.756C122.673 34.948 122.919 35.098 123.195 35.206C123.483 35.314 123.765 35.368 124.041 35.368C124.437 35.368 124.749 35.272 124.977 35.08C125.217 34.9 125.433 34.594 125.625 34.162L126.129 32.974L126.345 32.668L129.819 24.316H132.519L128.145 34.594C127.833 35.374 127.473 35.986 127.065 36.43C126.669 36.874 126.225 37.186 125.733 37.366C125.253 37.546 124.719 37.636 124.131 37.636ZM125.787 34.378L121.467 24.316H124.365L127.713 32.416L125.787 34.378ZM125.157 23.074L127.587 20.482H130.611L127.353 23.074H125.157ZM141.391 34L137.323 24.316H140.221L143.605 32.65H142.165L145.675 24.316H148.375L144.289 34H141.391ZM154.063 34.144C152.959 34.144 151.987 33.928 151.147 33.496C150.319 33.064 149.677 32.476 149.221 31.732C148.765 30.976 148.537 30.118 148.537 29.158C148.537 28.186 148.759 27.328 149.203 26.584C149.659 25.828 150.277 25.24 151.057 24.82C151.837 24.388 152.719 24.172 153.703 24.172C154.651 24.172 155.503 24.376 156.259 24.784C157.027 25.18 157.633 25.756 158.077 26.512C158.521 27.256 158.743 28.15 158.743 29.194C158.743 29.302 158.737 29.428 158.725 29.572C158.713 29.704 158.701 29.83 158.689 29.95H150.823V28.312H157.213L156.133 28.798C156.133 28.294 156.031 27.856 155.827 27.484C155.623 27.112 155.341 26.824 154.981 26.62C154.621 26.404 154.201 26.296 153.721 26.296C153.241 26.296 152.815 26.404 152.443 26.62C152.083 26.824 151.801 27.118 151.597 27.502C151.393 27.874 151.291 28.318 151.291 28.834V29.266C151.291 29.794 151.405 30.262 151.633 30.67C151.873 31.066 152.203 31.372 152.623 31.588C153.055 31.792 153.559 31.894 154.135 31.894C154.651 31.894 155.101 31.816 155.485 31.66C155.881 31.504 156.241 31.27 156.565 30.958L158.059 32.578C157.615 33.082 157.057 33.472 156.385 33.748C155.713 34.012 154.939 34.144 154.063 34.144ZM152.011 23.074L154.441 20.482H157.465L154.207 23.074H152.011Z" fill="white"/>
</svg>
